<svg width="10" height="9" viewBox="0 0 10 9" fill="none" xmlns="http://www.w3.org/2000/svg">
<path d="M1.58984 3.53418H2.33643C2.8055 3.52702 3.17432 3.40348 3.44287 3.16357C3.71143 2.92367 3.8457 2.59961 3.8457 2.19141C3.8457 1.27474 3.38916 0.816406 2.47607 0.816406C2.04639 0.816406 1.70264 0.939941 1.44482 1.18701C1.19059 1.4305 1.06348 1.75456 1.06348 2.15918H0.0698242C0.0698242 1.53971 0.29541 1.02588 0.746582 0.617676C1.20133 0.205892 1.77783 0 2.47607 0C3.2137 0 3.79199 0.19515 4.21094 0.585449C4.62988 0.975749 4.83936 1.51823 4.83936 2.21289C4.83936 2.55306 4.72835 2.88249 4.50635 3.20117C4.28792 3.51986 3.98893 3.75798 3.60938 3.91553C4.03906 4.0516 4.37028 4.27718 4.60303 4.59229C4.83936 4.90739 4.95752 5.29232 4.95752 5.74707C4.95752 6.44889 4.72835 7.0057 4.27002 7.41748C3.81169 7.82926 3.21549 8.03516 2.48145 8.03516C1.7474 8.03516 1.14941 7.83643 0.6875 7.43896C0.229167 7.0415 0 6.51693 0 5.86523H0.999023C0.999023 6.27702 1.1333 6.60645 1.40186 6.85352C1.67041 7.10059 2.03027 7.22412 2.48145 7.22412C2.96126 7.22412 3.32829 7.0988 3.58252 6.84814C3.83675 6.59749 3.96387 6.23763 3.96387 5.76855C3.96387 5.3138 3.82422 4.96468 3.54492 4.72119C3.26562 4.4777 2.86279 4.35238 2.33643 4.34521H1.58984V3.53418Z" fill="#0094FF"/>
<path d="M9.5874 7.92773H8.58838V1.30518L6.58496 2.04102V1.13867L9.43164 0.0698242H9.5874V7.92773Z" fill="#0094FF"/>
</svg>
